<svg xmlns="http://www.w3.org/2000/svg" xmlns:xlink="http://www.w3.org/1999/xlink" contentStyleType="text/css" data-diagram-type="DESCRIPTION" height="440px" preserveAspectRatio="none" style="width:970px;height:440px;background:#FFFFFF;" version="1.1" viewBox="0 0 970 440" width="970px" zoomAndPan="magnify"><?plantuml 1.2026.6?><defs/><g><g class="title" data-source-line="3"><text fill="#000000" font-family="Yu Gothic" font-size="14" font-weight="700" lengthAdjust="spacing" textLength="70" x="446.5" y="29.3184">&#12473;&#12488;&#12524;&#12540;&#12472;</text></g><!--cluster Node ????--><g class="cluster" data-qualified-name="Node ...." data-source-line="5" id="ent0001"><path d="M238.5,55.4287 L335.5449,55.4287 A3.75,3.75 0 0 1 338.0449,57.9287 L345.0449,83.8574 L675.5,83.8574 A2.5,2.5 0 0 1 678,86.3574 L678,145.9287 A2.5,2.5 0 0 1 675.5,148.4287 L238.5,148.4287 A2.5,2.5 0 0 1 236,145.9287 L236,57.9287 A2.5,2.5 0 0 1 238.5,55.4287" fill="none" style="stroke:#000000;stroke-width:1.5;"/><line style="stroke:#000000;stroke-width:1.5;" x1="236" x2="345.0449" y1="83.8574" y2="83.8574"/><text fill="#000000" font-family="Yu Gothic" font-size="14" font-weight="700" lengthAdjust="spacing" textLength="96.0449" x="240" y="76.7471">Node &#12469;&#12540;&#12496;&#12540;</text></g><!--entity SQLITE--><g class="entity" data-qualified-name="SQLITE" data-source-line="11" id="ent0005"><path d="M405,210.4287 C405,200.4287 479.8901,200.4287 479.8901,200.4287 C479.8901,200.4287 554.7803,200.4287 554.7803,210.4287 L554.7803,241.8574 C554.7803,251.8574 479.8901,251.8574 479.8901,251.8574 C479.8901,251.8574 405,251.8574 405,241.8574 L405,210.4287" fill="#F1F1F1" style="stroke:#181818;stroke-width:0.5;"/><path d="M405,210.4287 C405,220.4287 479.8901,220.4287 479.8901,220.4287 C479.8901,220.4287 554.7803,220.4287 554.7803,210.4287" fill="none" style="stroke:#181818;stroke-width:0.5;"/><text fill="#000000" font-family="Yu Gothic" font-size="14" lengthAdjust="spacing" textLength="129.7803" x="415" y="243.7471">SQLite (node:sqlite)</text></g><!--entity FILES--><g class="entity" data-qualified-name="FILES" data-source-line="12" id="ent0006"><path d="M381,311.4287 L422,311.4287 A3.75,3.75 0 0 1 424.5,313.9287 L431.5,332.4287 L579.1953,332.4287 A2.5,2.5 0 0 1 581.6953,334.9287 L581.6953,369.3574 A2.5,2.5 0 0 1 579.1953,371.8574 L381,371.8574 A2.5,2.5 0 0 1 378.5,369.3574 L378.5,313.9287 A2.5,2.5 0 0 1 381,311.4287" fill="#F1F1F1" style="stroke:#181818;stroke-width:0.5;"/><line style="stroke:#181818;stroke-width:0.5;" x1="378.5" x2="431.5" y1="332.4287" y2="332.4287"/><text fill="#000000" font-family="Yu Gothic" font-size="14" lengthAdjust="spacing" textLength="173.1953" x="388.5" y="358.7471">&#12501;&#12449;&#12452;&#12523;&#12514;&#12540;&#12489;(JSON/.sql)</text></g><g class="entity" data-qualified-name="GMN11" data-source-line="20" id="ent0012"><path d="M6,408.4287 L6,439.2554 A0,0 0 0 0 6,439.2554 L953.6753,439.2554 A0,0 0 0 0 953.6753,439.2554 L953.6753,418.4287 L943.6753,408.4287 L484,408.4287 L480,371.4911 L476,408.4287 L6,408.4287 A0,0 0 0 0 6,408.4287" fill="#FEFFDD" style="stroke:#181818;stroke-width:0.5;"/><path d="M943.6753,408.4287 L943.6753,418.4287 L953.6753,418.4287 L943.6753,408.4287" fill="#FEFFDD" style="stroke:#181818;stroke-width:0.5;"/><text fill="#000000" font-family="Yu Gothic" font-size="13" lengthAdjust="spacing" textLength="926.6753" x="12" y="431.3672">node:sqlite &#12364;&#20351;&#12360;&#12394;&#12356;&#22580;&#21512;(&#21476;&#12356;&#21516;&#26801; Node &#12394;&#12393;)&#12289;&#33258;&#21205;&#30340;&#12395;&#12501;&#12449;&#12452;&#12523;&#12514;&#12540;&#12489;&#12408;&#20999;&#12426;&#26367;&#12431;&#12427;&#12290;&#20108;&#37325;&#26360;&#12365;&#36796;&#12415;&#12399;&#12375;&#12394;&#12356; &#8212; &#24120;&#12395;1&#12388;&#12398;&#12496;&#12483;&#12463;&#12456;&#12531;&#12489;&#12384;&#12369;&#12364;&#30495;&#23455;&#12398;&#28304;&#12290;</text></g><!--entity SSTORE--><g class="entity" data-qualified-name="Node .....SSTORE" data-source-line="6" id="ent0002"><rect fill="#F1F1F1" height="52.4287" rx="2.5" ry="2.5" style="stroke:#181818;stroke-width:0.5;" width="141.3906" x="244.5" y="88.4287"/><rect fill="#F1F1F1" height="10" style="stroke:#181818;stroke-width:0.5;" width="15" x="365.8906" y="93.4287"/><rect fill="#F1F1F1" height="2" style="stroke:#181818;stroke-width:0.5;" width="4" x="363.8906" y="95.4287"/><rect fill="#F1F1F1" height="2" style="stroke:#181818;stroke-width:0.5;" width="4" x="363.8906" y="99.4287"/><text fill="#000000" font-family="Yu Gothic" font-size="14" lengthAdjust="spacing" textLength="101.3906" x="259.5" y="127.7471">SQL &#12521;&#12452;&#12502;&#12521;&#12522;</text></g><!--entity TSTORE--><g class="entity" data-qualified-name="Node .....TSTORE" data-source-line="7" id="ent0003"><rect fill="#F1F1F1" height="52.4287" rx="2.5" ry="2.5" style="stroke:#181818;stroke-width:0.5;" width="152" x="404" y="88.4287"/><rect fill="#F1F1F1" height="10" style="stroke:#181818;stroke-width:0.5;" width="15" x="536" y="93.4287"/><rect fill="#F1F1F1" height="2" style="stroke:#181818;stroke-width:0.5;" width="4" x="534" y="95.4287"/><rect fill="#F1F1F1" height="2" style="stroke:#181818;stroke-width:0.5;" width="4" x="534" y="99.4287"/><text fill="#000000" font-family="Yu Gothic" font-size="14" lengthAdjust="spacing" textLength="112" x="419" y="127.7471">&#12481;&#12517;&#12540;&#12491;&#12531;&#12464;&#23653;&#27508;</text></g><!--entity CSTORE--><g class="entity" data-qualified-name="Node .....CSTORE" data-source-line="8" id="ent0004"><rect fill="#F1F1F1" height="52.4287" rx="2.5" ry="2.5" style="stroke:#181818;stroke-width:0.5;" width="96" x="574" y="88.4287"/><rect fill="#F1F1F1" height="10" style="stroke:#181818;stroke-width:0.5;" width="15" x="650" y="93.4287"/><rect fill="#F1F1F1" height="2" style="stroke:#181818;stroke-width:0.5;" width="4" x="648" y="95.4287"/><rect fill="#F1F1F1" height="2" style="stroke:#181818;stroke-width:0.5;" width="4" x="648" y="99.4287"/><text fill="#000000" font-family="Yu Gothic" font-size="14" lengthAdjust="spacing" textLength="56" x="589" y="127.7471">&#25509;&#32154;&#24773;&#22577;</text></g><g class="link" data-entity-1="ent0002" data-entity-2="ent0005" data-link-type="dependency" id="lnk7"><polygon fill="#181818" points="442.8905,200.3015,437.6033,191.9921,438.7244,197.5367,433.1797,198.6578,442.8905,200.3015" style="stroke:#181818;stroke-width:1;stroke-linejoin:miter;stroke-miterlimit:10;"/><path d="M352.8543,140.5502 C379.8752,158.4822 411.8737,179.7176 438.7244,197.5367" fill="none" style="stroke:#181818;stroke-width:1;"/><text fill="#000000" font-family="Yu Gothic" font-size="13" lengthAdjust="spacing" textLength="26" x="415" y="178.3672">&#26082;&#23450;</text></g><g class="link" data-entity-1="ent0003" data-entity-2="ent0005" data-link-type="dependency" id="lnk8"><polygon fill="#181818" points="480,200.3015,484,191.3015,480,195.3015,476,191.3015,480,200.3015" style="stroke:#181818;stroke-width:1;stroke-linejoin:miter;stroke-miterlimit:10;"/><path d="M480,140.5502 C480,158.4822 480,177.4823 480,195.3015" fill="none" style="stroke:#181818;stroke-width:1;"/><text fill="#000000" font-family="Yu Gothic" font-size="13" lengthAdjust="spacing" textLength="26" x="482" y="178.3672">&#26082;&#23450;</text></g><g class="link" data-entity-1="ent0004" data-entity-2="ent0005" data-link-type="dependency" id="lnk9"><polygon fill="#181818" points="511.9367,200.3015,521.5064,197.9732,515.8962,197.2482,516.6212,191.638,511.9367,200.3015" style="stroke:#181818;stroke-width:1;stroke-linejoin:miter;stroke-miterlimit:10;"/><path d="M589.4223,140.5502 C566.168,158.4822 539.0041,179.4291 515.8962,197.2482" fill="none" style="stroke:#181818;stroke-width:1;"/><text fill="#000000" font-family="Yu Gothic" font-size="13" lengthAdjust="spacing" textLength="26" x="565" y="178.3672">&#26082;&#23450;</text></g><g class="link" data-entity-1="ent0005" data-entity-2="ent0006" data-link-type="dependency" id="lnk10"><polygon fill="#181818" points="480,311.0197,484,302.0197,480,306.0197,476,302.0197,480,311.0197" style="stroke:#181818;stroke-width:1;stroke-linejoin:miter;stroke-miterlimit:10;"/><path d="M480,251.5565 C480,269.0295 480,287.5603 480,306.0197" fill="none" style="stroke:#181818;stroke-width:1;stroke-dasharray:7,7;"/><text fill="#000000" font-family="Yu Gothic" font-size="13" lengthAdjust="spacing" textLength="169" x="482" y="289.3672">&#21021;&#26399;&#21270;&#22833;&#25943;&#26178;&#12501;&#12457;&#12540;&#12523;&#12496;&#12483;&#12463;</text></g><?plantuml-src TP51Rn915CVlyobUET53CLvxwAMXfWsXgN0nniEqkxIai8im78mnOMPgGA4j9b8YrHG9909A9LQ3JRNVnTSPwhTmTfSq7jhBPj_ytdl__tzcBfUdsraA6VhCBJ8eP6r67KhcRZykxAQT7CtJB5XsYXOpRCLrM9ncRNXKX0Sksqbl4PPc6HjG_4HPGVaPvGMA2I4vkhLBjsq8nLtBmzyz8Elc6uBd1E1nOYC6AFiekYYFl1yvU0Aq08b4SlrXrEj0oL7s_BagocyelgfnJtyvyzkIDstwe3VzqTBofMgFVRGSe1U4M9JHJLemBenQcjaGTeoRnSBJZ2dcGxxSHcmr6IKfDsFPUGYXRA3uw9iQekpuug_2Qudr-Bs86GjcLbPZqGGXWLDOM5YQRO55qCsE6hL8ycwqV3UQrP78KY1XYAfyqEzFLEr8TSUwqTJlXE-mxniR-XSgKPmIuhWctgRBc9i5DpMp2F1VNa1Uk_frYRo2V81yJxNFLBqILeTThwZNT6SCmMDvk3-F9NvT7gXgOzhQGpwyzMQGJrIbZEArFhv4SOYYYYLnTLxxMzxNnnFa-zU_Bv0RpLFapK0M_fJUWfeOEBoFt6YFRbAW-EIzixUsZVoDyJirsKSdfaUVryrcOZiMU4d9Fm00?></g></svg>