<svg xmlns="http://www.w3.org/2000/svg" xmlns:xlink="http://www.w3.org/1999/xlink" contentStyleType="text/css" data-diagram-type="SEQUENCE" height="552px" preserveAspectRatio="none" style="width:606px;height:552px;background:#FFFFFF;" version="1.1" viewBox="0 0 606 552" width="606px" zoomAndPan="magnify"><?plantuml 1.2026.6?><defs/><g><g class="title" data-source-line="3"><text fill="#000000" font-family="Yu Gothic" font-size="14" font-weight="700" lengthAdjust="spacing" textLength="126" x="236.5166" y="34.3184">&#20505;&#35036;&#12539;&#12488;&#12540;&#12490;&#12513;&#12531;&#12488;</text></g><g class="participant-lifeline" data-entity-uid="part1" data-qualified-name="USER" data-source-line="5" id="part1-lifeline"><g><title>....</title><rect fill="#000000" fill-opacity="0.00000" height="333.4399" width="8" x="32" y="130.8574"/><line style="stroke:#181818;stroke-width:0.5;stroke-dasharray:5,5;" x1="36" x2="36" y1="130.8574" y2="464.2974"/></g></g><g class="participant-lifeline" data-entity-uid="part2" data-qualified-name="GEN" data-source-line="6" id="part2-lifeline"><g><title>....</title><rect fill="#000000" fill-opacity="0.00000" height="333.4399" width="8" x="173" y="130.8574"/><line style="stroke:#181818;stroke-width:0.5;stroke-dasharray:5,5;" x1="177" x2="177" y1="130.8574" y2="464.2974"/></g></g><g class="participant-lifeline" data-entity-uid="part3" data-qualified-name="QUAL" data-source-line="7" id="part3-lifeline"><g><title>........</title><rect fill="#000000" fill-opacity="0.00000" height="333.4399" width="8" x="340" y="130.8574"/><line style="stroke:#181818;stroke-width:0.5;stroke-dasharray:5,5;" x1="343.5928" x2="343.5928" y1="130.8574" y2="464.2974"/></g></g><g class="participant-lifeline" data-entity-uid="part4" data-qualified-name="FINAL" data-source-line="8" id="part4-lifeline"><g><title>......</title><rect fill="#000000" fill-opacity="0.00000" height="333.4399" width="8" x="444.8145" y="130.8574"/><line style="stroke:#181818;stroke-width:0.5;stroke-dasharray:5,5;" x1="448.4072" x2="448.4072" y1="130.8574" y2="464.2974"/></g></g><g class="participant-lifeline" data-entity-uid="part5" data-qualified-name="ORACLE" data-source-line="9" id="part5-lifeline"><g><title>Oracle</title><rect fill="#000000" fill-opacity="0.00000" height="333.4399" width="8" x="567.1016" y="130.8574"/><line style="stroke:#181818;stroke-width:0.5;stroke-dasharray:5,5;" x1="570.1699" x2="570.1699" y1="130.8574" y2="464.2974"/></g></g><g class="participant participant-head" data-entity-uid="part1" data-qualified-name="USER" data-source-line="5" id="part1-head"><text fill="#000000" font-family="Yu Gothic" font-size="14" lengthAdjust="spacing" textLength="56" x="5" y="127.7471">&#12518;&#12540;&#12470;&#12540;</text><ellipse cx="36" cy="56.9287" fill="#E2E2F0" rx="8" ry="8" style="stroke:#181818;stroke-width:0.5;"/><path d="M36,64.9287 L36,91.9287 M23,72.9287 L49,72.9287 M36,91.9287 L23,106.9287 M36,91.9287 L49,106.9287" fill="none" style="stroke:#181818;stroke-width:0.5;"/></g><g class="participant participant-tail" data-entity-uid="part1" data-qualified-name="USER" data-source-line="5" id="part1-tail"><text fill="#000000" font-family="Yu Gothic" font-size="14" lengthAdjust="spacing" textLength="56" x="5" y="482.6157">&#12518;&#12540;&#12470;&#12540;</text><ellipse cx="36" cy="494.2261" fill="#E2E2F0" rx="8" ry="8" style="stroke:#181818;stroke-width:0.5;"/><path d="M36,502.2261 L36,529.2261 M23,510.2261 L49,510.2261 M36,529.2261 L23,544.2261 M36,529.2261 L49,544.2261" fill="none" style="stroke:#181818;stroke-width:0.5;"/></g><g class="participant participant-head" data-entity-uid="part2" data-qualified-name="GEN" data-source-line="6" id="part2-head"><rect fill="#E2E2F0" height="36.4287" rx="2.5" ry="2.5" style="stroke:#181818;stroke-width:0.5;" width="70" x="142" y="93.4287"/><text fill="#000000" font-family="Yu Gothic" font-size="14" lengthAdjust="spacing" textLength="56" x="149" y="119.7471">&#20505;&#35036;&#29983;&#25104;</text></g><g class="participant participant-tail" data-entity-uid="part2" data-qualified-name="GEN" data-source-line="6" id="part2-tail"><rect fill="#E2E2F0" height="36.4287" rx="2.5" ry="2.5" style="stroke:#181818;stroke-width:0.5;" width="70" x="142" y="463.2974"/><text fill="#000000" font-family="Yu Gothic" font-size="14" lengthAdjust="spacing" textLength="56" x="149" y="489.6157">&#20505;&#35036;&#29983;&#25104;</text></g><g class="participant participant-head" data-entity-uid="part3" data-qualified-name="QUAL" data-source-line="7" id="part3-head"><rect fill="#E2E2F0" height="36.4287" rx="2.5" ry="2.5" style="stroke:#181818;stroke-width:0.5;" width="108.8145" x="289.5928" y="93.4287"/><text fill="#000000" font-family="Yu Gothic" font-size="14" lengthAdjust="spacing" textLength="94.8145" x="296.5928" y="119.7471">&#20104;&#36984;(&#32080;&#26524;&#26908;&#35388;)</text></g><g class="participant participant-tail" data-entity-uid="part3" data-qualified-name="QUAL" data-source-line="7" id="part3-tail"><rect fill="#E2E2F0" height="36.4287" rx="2.5" ry="2.5" style="stroke:#181818;stroke-width:0.5;" width="108.8145" x="289.5928" y="463.2974"/><text fill="#000000" font-family="Yu Gothic" font-size="14" lengthAdjust="spacing" textLength="94.8145" x="296.5928" y="489.6157">&#20104;&#36984;(&#32080;&#26524;&#26908;&#35388;)</text></g><g class="participant participant-head" data-entity-uid="part4" data-qualified-name="FINAL" data-source-line="8" id="part4-head"><rect fill="#E2E2F0" height="36.4287" rx="2.5" ry="2.5" style="stroke:#181818;stroke-width:0.5;" width="80.8145" x="408.4072" y="93.4287"/><text fill="#000000" font-family="Yu Gothic" font-size="14" lengthAdjust="spacing" textLength="66.8145" x="415.4072" y="119.7471">&#26412;&#25126;(&#35336;&#28204;)</text></g><g class="participant participant-tail" data-entity-uid="part4" data-qualified-name="FINAL" data-source-line="8" id="part4-tail"><rect fill="#E2E2F0" height="36.4287" rx="2.5" ry="2.5" style="stroke:#181818;stroke-width:0.5;" width="80.8145" x="408.4072" y="463.2974"/><text fill="#000000" font-family="Yu Gothic" font-size="14" lengthAdjust="spacing" textLength="66.8145" x="415.4072" y="489.6157">&#26412;&#25126;(&#35336;&#28204;)</text></g><g class="participant participant-head" data-entity-uid="part5" data-qualified-name="ORACLE" data-source-line="9" id="part5-head"><text fill="#000000" font-family="Yu Gothic" font-size="14" lengthAdjust="spacing" textLength="41.8633" x="547.1699" y="127.7471">Oracle</text><path d="M553.1016,72.4287 C553.1016,62.4287 571.1016,62.4287 571.1016,62.4287 C571.1016,62.4287 589.1016,62.4287 589.1016,72.4287 L589.1016,98.4287 C589.1016,108.4287 571.1016,108.4287 571.1016,108.4287 C571.1016,108.4287 553.1016,108.4287 553.1016,98.4287 L553.1016,72.4287" fill="#E2E2F0" style="stroke:#181818;stroke-width:0.5;"/><path d="M553.1016,72.4287 C553.1016,82.4287 571.1016,82.4287 571.1016,82.4287 C571.1016,82.4287 589.1016,82.4287 589.1016,72.4287" fill="none" style="stroke:#181818;stroke-width:0.5;"/></g><g class="participant participant-tail" data-entity-uid="part5" data-qualified-name="ORACLE" data-source-line="9" id="part5-tail"><text fill="#000000" font-family="Yu Gothic" font-size="14" lengthAdjust="spacing" textLength="41.8633" x="547.1699" y="482.6157">Oracle</text><path d="M553.1016,495.7261 C553.1016,485.7261 571.1016,485.7261 571.1016,485.7261 C571.1016,485.7261 589.1016,485.7261 589.1016,495.7261 L589.1016,521.7261 C589.1016,531.7261 571.1016,531.7261 571.1016,531.7261 C571.1016,531.7261 553.1016,531.7261 553.1016,521.7261 L553.1016,495.7261" fill="#E2E2F0" style="stroke:#181818;stroke-width:0.5;"/><path d="M553.1016,495.7261 C553.1016,505.7261 571.1016,505.7261 571.1016,505.7261 C571.1016,505.7261 589.1016,505.7261 589.1016,495.7261" fill="none" style="stroke:#181818;stroke-width:0.5;"/></g><g class="message" data-entity-1="part1" data-entity-2="part2" data-source-line="11" id="msg1"><polygon fill="#181818" points="165,163.6841,175,167.6841,165,171.6841,169,167.6841" style="stroke:#181818;stroke-width:1;stroke-linejoin:miter;stroke-miterlimit:10;"/><line style="stroke:#181818;stroke-width:1;" x1="36" x2="171" y1="167.6841" y2="167.6841"/><text fill="#000000" font-family="Yu Gothic" font-size="13" lengthAdjust="spacing" textLength="117" x="43" y="162.7959">&#20505;&#35036;&#29983;&#25104;&#12522;&#12463;&#12456;&#12473;&#12488;</text></g><g class="message" data-entity-1="part2" data-entity-2="part3" data-source-line="12" id="msg2"><polygon fill="#181818" points="332,198.5107,342,202.5107,332,206.5107,336,202.5107" style="stroke:#181818;stroke-width:1;stroke-linejoin:miter;stroke-miterlimit:10;"/><line style="stroke:#181818;stroke-width:1;" x1="177" x2="338" y1="202.5107" y2="202.5107"/><text fill="#000000" font-family="Yu Gothic" font-size="13" lengthAdjust="spacing" textLength="98.23" x="184" y="197.6226">&#21508;&#20505;&#35036;&#12434;1&#22238;&#23455;&#34892;</text></g><g class="message" data-entity-1="part3" data-entity-2="part5" data-source-line="13" id="msg3"><polygon fill="#181818" points="559.1016,233.3374,569.1016,237.3374,559.1016,241.3374,563.1016,237.3374" style="stroke:#181818;stroke-width:1;stroke-linejoin:miter;stroke-miterlimit:10;"/><line style="stroke:#181818;stroke-width:1;" x1="344" x2="565.1016" y1="237.3374" y2="237.3374"/><text fill="#000000" font-family="Yu Gothic" font-size="13" lengthAdjust="spacing" textLength="55.1484" x="351" y="232.4492">SQL &#23455;&#34892;</text></g><g class="message" data-entity-1="part5" data-entity-2="part3" data-source-line="14" id="msg4"><polygon fill="#181818" points="355,268.1641,345,272.1641,355,276.1641,351,272.1641" style="stroke:#181818;stroke-width:1;stroke-linejoin:miter;stroke-miterlimit:10;"/><line style="stroke:#181818;stroke-width:1;stroke-dasharray:2,2;" x1="349" x2="570.1016" y1="272.1641" y2="272.1641"/><text fill="#000000" font-family="Yu Gothic" font-size="13" lengthAdjust="spacing" textLength="65" x="361" y="267.2759">&#32080;&#26524;&#12475;&#12483;&#12488;</text></g><g class="message" data-entity-1="part3" data-entity-2="part2" data-source-line="15" id="msg5"><polygon fill="#181818" points="188,302.9907,178,306.9907,188,310.9907,184,306.9907" style="stroke:#181818;stroke-width:1;stroke-linejoin:miter;stroke-miterlimit:10;"/><line style="stroke:#181818;stroke-width:1;stroke-dasharray:2,2;" x1="182" x2="343" y1="306.9907" y2="306.9907"/><text fill="#000000" font-family="Yu Gothic" font-size="13" lengthAdjust="spacing" textLength="143" x="194" y="302.1025">&#32080;&#26524;&#19968;&#33268;&#12398;&#20505;&#35036;&#12398;&#12415;&#36890;&#36942;</text></g><g class="message" data-entity-1="part2" data-entity-2="part4" data-source-line="16" id="msg6"><polygon fill="#181818" points="436.8145,337.8174,446.8145,341.8174,436.8145,345.8174,440.8145,341.8174" style="stroke:#181818;stroke-width:1;stroke-linejoin:miter;stroke-miterlimit:10;"/><line style="stroke:#181818;stroke-width:1;" x1="177" x2="442.8145" y1="341.8174" y2="341.8174"/><text fill="#000000" font-family="Yu Gothic" font-size="13" lengthAdjust="spacing" textLength="117" x="184" y="336.9292">&#36890;&#36942;&#20505;&#35036;&#12434;&#21453;&#24489;&#35336;&#28204;</text></g><g class="message" data-entity-1="part4" data-entity-2="part5" data-source-line="17" id="msg7"><polygon fill="#181818" points="559.1016,372.644,569.1016,376.644,559.1016,380.644,563.1016,376.644" style="stroke:#181818;stroke-width:1;stroke-linejoin:miter;stroke-miterlimit:10;"/><line style="stroke:#181818;stroke-width:1;" x1="448.8145" x2="565.1016" y1="376.644" y2="376.644"/><text fill="#000000" font-family="Yu Gothic" font-size="13" lengthAdjust="spacing" textLength="98.2871" x="455.8145" y="371.7559">SQL &#12434; N &#22238;&#23455;&#34892;</text></g><g class="message" data-entity-1="part5" data-entity-2="part4" data-source-line="18" id="msg8"><polygon fill="#181818" points="459.8145,407.4707,449.8145,411.4707,459.8145,415.4707,455.8145,411.4707" style="stroke:#181818;stroke-width:1;stroke-linejoin:miter;stroke-miterlimit:10;"/><line style="stroke:#181818;stroke-width:1;stroke-dasharray:2,2;" x1="453.8145" x2="570.1016" y1="411.4707" y2="411.4707"/><text fill="#000000" font-family="Yu Gothic" font-size="13" lengthAdjust="spacing" textLength="91" x="465.8145" y="406.5825">&#25152;&#35201;&#26178;&#38291;&#12539;&#32113;&#35336;</text></g><g class="message" data-entity-1="part4" data-entity-2="part1" data-source-line="19" id="msg9"><polygon fill="#181818" points="47,442.2974,37,446.2974,47,450.2974,43,446.2974" style="stroke:#181818;stroke-width:1;stroke-linejoin:miter;stroke-miterlimit:10;"/><line style="stroke:#181818;stroke-width:1;stroke-dasharray:2,2;" x1="41" x2="447.8145" y1="446.2974" y2="446.2974"/><text fill="#000000" font-family="Yu Gothic" font-size="13" lengthAdjust="spacing" textLength="88.042" x="53" y="441.4092">&#38918;&#20301;&#34920;(&#25913;&#21892;&#29575;)</text></g><?plantuml-src RP5FIm916CRlyodUFEcXGzSEWOH588Q9XuwJRhMahkXuwERkI6vH9XL19PKKieKOqH-qh3xCkEFwBPhTKSleCZ3l-vldUTvtfh8vl976aCBRMe50FgqGdC5ewlzoValDP74Efo6fhED2YYne6HB1QGLM2x2eaKqrWOXAKWhOnJFdfiReEwCcerr6znYjC_eahWZX1D5ou6EquRQCLt7w0ESX7Wkj8A5Fr8IQnHa2FYdJFxdYPjL35aEHIQBtPWxqjh__KkMNDNvRSwnkm2EZyM1u4kMr9ZSRViSoURifeOMbYA2IcE0rd5V0jvp3YPJYjPPNWlFX449kA9YUSvrX5du7OlIU6G_Ci9ZHSUTo2G6wnYvPBGsNO1pDs1UNTklAgUyZhoieAI-uM3GCmzwmDlqZ8iTYXbWZTItawt4QsUwrYqxvcUcjeP_UOlhNe7W-q2kZJDwSue6iZdFPXmVsvvrS29BCtsY2WWZyvF-LSIJATujEG-Tdnk3qMFnu_-LHA8xa1ETjK7XVx_G-3fowvUSd7VkqrA-K0-WR?></g></svg>