<svg xmlns="http://www.w3.org/2000/svg" xmlns:xlink="http://www.w3.org/1999/xlink" contentStyleType="text/css" data-diagram-type="DESCRIPTION" height="553px" preserveAspectRatio="none" style="width:701px;height:553px;background:#FFFFFF;" version="1.1" viewBox="0 0 701 553" width="701px" zoomAndPan="magnify"><?plantuml 1.2026.6?><defs/><g><g class="title" data-source-line="3"><text fill="#000000" font-family="Microsoft YaHei" font-size="14" font-weight="700" lengthAdjust="spacing" textLength="28" x="333" y="24.8135">&#29992;&#20363;</text></g><!--cluster Oracle Tuner--><g class="cluster" data-qualified-name="Oracle Tuner" data-source-line="10" id="ent0003"><rect fill="none" height="487" rx="2.5" ry="2.5" style="stroke:#181818;stroke-width:1;" width="231" x="194" y="51.4775"/><text fill="#000000" font-family="Microsoft YaHei" font-size="14" font-weight="700" lengthAdjust="spacing" textLength="90.1523" x="264.4238" y="68.291">Oracle Tuner</text></g><!--entity DEV--><g class="entity" data-qualified-name="DEV" data-source-line="7" id="ent0001"><ellipse cx="57.9907" cy="267.9775" fill="#F1F1F1" rx="8" ry="8" style="stroke:#181818;stroke-width:0.5;"/><path d="M57.9907,275.9775 L57.9907,302.9775 M44.9907,283.9775 L70.9907,283.9775 M57.9907,302.9775 L44.9907,317.9775 M57.9907,302.9775 L70.9907,317.9775" fill="none" style="stroke:#181818;stroke-width:0.5;"/><text fill="#000000" font-family="Microsoft YaHei" font-size="14" lengthAdjust="spacing" textLength="103.9814" x="6" y="334.291">&#24320;&#21457;&#32773;/&#35843;&#20248;&#20154;&#21592;</text></g><!--entity DBA--><g class="entity" data-qualified-name="DBA" data-source-line="8" id="ent0002"><ellipse cx="58.1494" cy="483.9775" fill="#F1F1F1" rx="8" ry="8" style="stroke:#181818;stroke-width:0.5;"/><path d="M58.1494,491.9775 L58.1494,518.9775 M45.1494,499.9775 L71.1494,499.9775 M58.1494,518.9775 L45.1494,533.9775 M58.1494,518.9775 L71.1494,533.9775" fill="none" style="stroke:#181818;stroke-width:0.5;"/><text fill="#000000" font-family="Microsoft YaHei" font-size="14" lengthAdjust="spacing" textLength="29.2988" x="43.5" y="550.291">DBA</text></g><g class="entity" data-qualified-name="GMN23" data-source-line="34" id="ent0024"><path d="M454,375.9775 L454,402.4775 L417.3008,406.4775 L454,410.4775 L454,437.4507 A0,0 0 0 0 454,437.4507 L685.3867,437.4507 A0,0 0 0 0 685.3867,437.4507 L685.3867,385.9775 L675.3867,375.9775 L454,375.9775 A0,0 0 0 0 454,375.9775" fill="#FEFFDD" style="stroke:#181818;stroke-width:0.5;"/><path d="M675.3867,375.9775 L675.3867,385.9775 L685.3867,385.9775 L675.3867,375.9775" fill="#FEFFDD" style="stroke:#181818;stroke-width:0.5;"/><text fill="#000000" font-family="Microsoft YaHei" font-size="13" lengthAdjust="spacing" textLength="126.877" x="467.6934" y="394.7329">&#26080;&#27861;&#35775;&#38382; V$SQL &#26102;&#65292;</text><text fill="#000000" font-family="Microsoft YaHei" font-size="13" lengthAdjust="spacing" textLength="210.3867" x="460" y="411.8906">&#27979;&#37327;&#20250;&#33258;&#21160;&#38477;&#32423;&#20026; TIMING_ONLY&#12290;</text><text fill="#000000" font-family="Microsoft YaHei" font-size="13" lengthAdjust="spacing" textLength="177.6836" x="460" y="429.0483">&#23454;&#38469;&#29366;&#24577;&#35265;[&#26435;&#38480;&#35828;&#26126;]&#26631;&#31614;&#39029;&#12290;</text></g><!--entity UC1--><g class="entity" data-qualified-name="Oracle Tuner.UC1" data-source-line="11" id="ent0004"><ellipse cx="309.598" cy="514.5431" fill="#F1F1F1" rx="42.598" ry="16.0656" style="stroke:#181818;stroke-width:0.5;"/><text fill="#000000" font-family="Microsoft YaHei" font-size="14" lengthAdjust="spacing" textLength="56" x="281.598" y="520.2819">&#36830;&#25509;&#31649;&#29702;</text></g><!--entity UC2--><g class="entity" data-qualified-name="Oracle Tuner.UC2" data-source-line="12" id="ent0005"><ellipse cx="309.397" cy="198.5431" fill="#F1F1F1" rx="62.397" ry="16.0656" style="stroke:#181818;stroke-width:0.5;"/><text fill="#000000" font-family="Microsoft YaHei" font-size="14" lengthAdjust="spacing" textLength="84" x="267.397" y="204.2819">&#27983;&#35272;&#25968;&#25454;&#23383;&#20856;</text></g><!--entity UC3--><g class="entity" data-qualified-name="Oracle Tuner.UC3" data-source-line="13" id="ent0006"><ellipse cx="309.5895" cy="248.5431" fill="#F1F1F1" rx="44.5895" ry="16.0656" style="stroke:#181818;stroke-width:0.5;"/><text fill="#000000" font-family="Microsoft YaHei" font-size="14" lengthAdjust="spacing" textLength="58.8164" x="280.1813" y="254.2819">SQL &#35786;&#26029;</text></g><!--entity UC4--><g class="entity" data-qualified-name="Oracle Tuner.UC4" data-source-line="14" id="ent0007"><ellipse cx="309.397" cy="298.5431" fill="#F1F1F1" rx="62.397" ry="16.0656" style="stroke:#181818;stroke-width:0.5;"/><text fill="#000000" font-family="Microsoft YaHei" font-size="14" lengthAdjust="spacing" textLength="84" x="267.397" y="304.2819">&#26597;&#30475;&#25191;&#34892;&#35745;&#21010;</text></g><!--entity UC5--><g class="entity" data-qualified-name="Oracle Tuner.UC5" data-source-line="15" id="ent0008"><ellipse cx="309.397" cy="348.5431" fill="#F1F1F1" rx="62.397" ry="16.0656" style="stroke:#181818;stroke-width:0.5;"/><text fill="#000000" font-family="Microsoft YaHei" font-size="14" lengthAdjust="spacing" textLength="84" x="267.397" y="354.2819">&#29983;&#25104;&#35843;&#20248;&#20505;&#36873;</text></g><!--entity UC6--><g class="entity" data-qualified-name="Oracle Tuner.UC6" data-source-line="16" id="ent0009"><ellipse cx="309.6184" cy="406.4012" fill="#F1F1F1" rx="107.6184" ry="23.9237" style="stroke:#181818;stroke-width:0.5;"/><text fill="#000000" font-family="Microsoft YaHei" font-size="14" lengthAdjust="spacing" textLength="187.7354" x="215.7507" y="412.14">&#25191;&#34892;&#38182;&#26631;&#36187;(&#24615;&#33021;+&#32467;&#26524;&#19968;&#33268;&#24615;)</text></g><!--entity UC7--><g class="entity" data-qualified-name="Oracle Tuner.UC7" data-source-line="17" id="ent0010"><ellipse cx="309.598" cy="464.5431" fill="#F1F1F1" rx="42.598" ry="16.0656" style="stroke:#181818;stroke-width:0.5;"/><text fill="#000000" font-family="Microsoft YaHei" font-size="14" lengthAdjust="spacing" textLength="56" x="281.598" y="470.2819">&#23545;&#27604;&#39564;&#35777;</text></g><!--entity UC8--><g class="entity" data-qualified-name="Oracle Tuner.UC8" data-source-line="18" id="ent0011"><ellipse cx="309.3415" cy="97.4458" fill="#F1F1F1" rx="70.3415" ry="16.4683" style="stroke:#181818;stroke-width:0.5;"/><text fill="#000000" font-family="Microsoft YaHei" font-size="14" lengthAdjust="spacing" textLength="98" x="260.3415" y="103.1846">&#20445;&#23384;&#24182;&#23548;&#20986;&#21382;&#21490;</text></g><!--entity UC9--><g class="entity" data-qualified-name="Oracle Tuner.UC9" data-source-line="19" id="ent0012"><ellipse cx="309.397" cy="148.5431" fill="#F1F1F1" rx="62.397" ry="16.0656" style="stroke:#181818;stroke-width:0.5;"/><text fill="#000000" font-family="Microsoft YaHei" font-size="14" lengthAdjust="spacing" textLength="84" x="267.397" y="154.2819">&#29983;&#25104;&#28436;&#31034;&#25968;&#25454;</text></g><g class="link" data-entity-1="ent0001" data-entity-2="ent0004" data-link-type="dependency" id="lnk13"><polygon fill="#181818" points="266.9157,510.2744,258.6276,504.9539,261.9737,509.515,257.4126,512.8611,266.9157,510.2744" style="stroke:#181818;stroke-width:1;stroke-linejoin:miter;stroke-miterlimit:10;"/><path d="M73.7982,337.5719 C85.7727,366.1737 104.4889,404.9705 128,434.4775 C151.7947,464.3404 159.6988,472.7024 194,489.4775 C216.7562,500.6065 239.5174,506.0643 261.9737,509.515" fill="none" style="stroke:#181818;stroke-width:1;"/></g><g class="link" data-entity-1="ent0001" data-entity-2="ent0005" data-link-type="dependency" id="lnk14"><polygon fill="#181818" points="246.9296,208.4745,237.2895,206.4575,242.0415,209.5265,238.9726,214.2785,246.9296,208.4745" style="stroke:#181818;stroke-width:1;stroke-linejoin:miter;stroke-miterlimit:10;"/><path d="M110.1771,265.3866 C134.7198,250.7514 165.0291,234.4165 194,223.4775 C210.7509,217.1527 224.6272,213.274 242.0415,209.5265" fill="none" style="stroke:#181818;stroke-width:1;"/></g><g class="link" data-entity-1="ent0001" data-entity-2="ent0006" data-link-type="dependency" id="lnk15"><polygon fill="#181818" points="264.7235,257.1664,255.1163,254.9976,259.8194,258.1411,256.6759,262.8441,264.7235,257.1664" style="stroke:#181818;stroke-width:1;stroke-linejoin:miter;stroke-miterlimit:10;"/><path d="M110.2408,288.0612 C116.2273,286.8501 122.2481,285.6347 128,284.4775 C174.6763,275.0876 223.2607,265.4075 259.8194,258.1411" fill="none" style="stroke:#181818;stroke-width:1;"/></g><g class="link" data-entity-1="ent0001" data-entity-2="ent0007" data-link-type="dependency" id="lnk16"><polygon fill="#181818" points="246.8884,298.4775,237.8884,294.4775,241.8884,298.4775,237.8884,302.4775,246.8884,298.4775" style="stroke:#181818;stroke-width:1;stroke-linejoin:miter;stroke-miterlimit:10;"/><path d="M110.0921,298.4775 C149.7258,298.4775 199.8135,298.4775 241.8884,298.4775" fill="none" style="stroke:#181818;stroke-width:1;"/></g><g class="link" data-entity-1="ent0001" data-entity-2="ent0008" data-link-type="dependency" id="lnk17"><polygon fill="#181818" points="246.8884,336.1305,238.8498,330.4401,241.9859,335.1481,237.2779,338.2841,246.8884,336.1305" style="stroke:#181818;stroke-width:1;stroke-linejoin:miter;stroke-miterlimit:10;"/><path d="M110.0921,308.7164 C149.7258,316.6591 199.9109,326.7162 241.9859,335.1481" fill="none" style="stroke:#181818;stroke-width:1;"/></g><g class="link" data-entity-1="ent0001" data-entity-2="ent0009" data-link-type="dependency" id="lnk18"><polygon fill="#181818" points="217.8329,382.4249,210.6103,375.7291,213.1016,380.8078,208.0229,383.2992,217.8329,382.4249" style="stroke:#181818;stroke-width:1;stroke-linejoin:miter;stroke-miterlimit:10;"/><path d="M110.1961,330.5272 C134.8688,345.0244 165.2798,361.5424 194,373.4775 C201.6415,376.6531 204.9591,378.0248 213.1016,380.8078" fill="none" style="stroke:#181818;stroke-width:1;"/></g><g class="link" data-entity-1="ent0001" data-entity-2="ent0010" data-link-type="dependency" id="lnk19"><polygon fill="#181818" points="266.7336,461.186,258.3772,455.9735,261.7822,460.4908,257.2649,463.8958,266.7336,461.186" style="stroke:#181818;stroke-width:1;stroke-linejoin:miter;stroke-miterlimit:10;"/><path d="M85.8863,337.7088 C110.2711,370.1506 149.1875,414.7665 194,439.4775 C216.2717,451.7589 239.1412,457.312 261.7822,460.4908" fill="none" style="stroke:#181818;stroke-width:1;"/></g><g class="link" data-entity-1="ent0001" data-entity-2="ent0011" data-link-type="dependency" id="lnk20"><polygon fill="#181818" points="238.8275,107.0203,229.1306,105.2971,233.9736,108.2203,231.0505,113.0633,238.8275,107.0203" style="stroke:#181818;stroke-width:1;stroke-linejoin:miter;stroke-miterlimit:10;"/><path d="M76.9021,259.213 C98.2607,217.4676 138.2179,153.426 194,123.4775 C207.7392,116.1012 218.6379,112.0115 233.9736,108.2203" fill="none" style="stroke:#181818;stroke-width:1;"/></g><g class="link" data-entity-1="ent0001" data-entity-2="ent0012" data-link-type="dependency" id="lnk21"><polygon fill="#181818" points="246.7081,156.4506,237.0753,154.3991,241.8163,157.485,238.7304,162.226,246.7081,156.4506" style="stroke:#181818;stroke-width:1;stroke-linejoin:miter;stroke-miterlimit:10;"/><path d="M89.8722,259.4292 C114.7908,230.8042 152.4463,193.5681 194,173.4775 C210.3031,165.5952 224.2177,161.2064 241.8163,157.485" fill="none" style="stroke:#181818;stroke-width:1;"/></g><g class="link" data-entity-1="ent0002" data-entity-2="ent0004" data-link-type="dependency" id="lnk22"><polygon fill="#181818" points="266.7953,514.4775,257.7953,510.4775,261.7953,514.4775,257.7953,518.4775,266.7953,514.4775" style="stroke:#181818;stroke-width:1;stroke-linejoin:miter;stroke-miterlimit:10;"/><path d="M72.7696,514.4775 C109.24,514.4775 204.4586,514.4775 261.7953,514.4775" fill="none" style="stroke:#181818;stroke-width:1;stroke-dasharray:7,7;"/><text fill="#000000" font-family="Microsoft YaHei" font-size="13" lengthAdjust="spacing" textLength="52" x="130" y="509.2329">&#25480;&#20104;&#26435;&#38480;</text></g><?plantuml-src RP9TJnD158RlvrSCZHSQ0qQ-yS84n0yIA34Y2J76JDfjtTZkaktqmX2JhGsqjAKjMcohK6WYbf1qboXjohhI7-FExEoLVy5jkyOXUZLlplkSSsREcQ5r1OMZ24RGQpcEOImgO2GXCFJ_SEoLAAqZ1KLXK0YXU0G_a2NiHr41Bea1HOx98GpNq2D115Z44G7QfHFhCWj0H70DB4D53B_4C2WgGW2BiWG02c1PWJvYggImozJDM-miQPaLop38RiK7KGpEtr_zGytFpGv2SxC0z4eWAUmsyIqhAE2UAt59K7nm0q0OZma157CjrgtH_B6jrUtYLZ_twRtRl4zR1TP8qxqpkgEHPfbiTZngbAUUF5w4JC_G3qtF7RjIu_3Oti_IxGQhvvXM9-bt7ZNEKtRfaAQBW-SHjUgesnurSQLMlufJ-aAFKgprwJfL6opvuwRz_JsjxLiTbQNEtT0DBtMIJoNw1TLBpccEwGdFd-9zgtj0cXLoqIQwIL86oM-HmbSFdFxtfjGisP-DmMGyQWQy0S3T1nmUljiVv5yzokanJezpUeBJavoUulGqfsU0ksWuCjBl1Uz0cazRHfeU99rg4G19neBtd-IGDmjQFgBVzfZMTSeQNBtMMnijjt-PEK1RMITLiCoFB7LACYTETSSs6bR7W2iBIml-Xo-M_OjhFzMtW6WrfxffPzfKJR16ujcW6zFFQIN_tDs9tRnqwgqUAKX1sBi3-0q0?></g></svg>